# xmcd CD database file
#
# Track frame offsets:
#	150
#	26555
#	50035
#	86305
#	110628
#	133358
#	170253
#
# Disc length: 2739 seconds
#
# Revision: 0
# Processed by: cddbd v1.5.2PL0 Copyright (c) Steve Scherf et al.
# Submitted via: CDex 1.51
#
DISCID=5b0ab107
DTITLE=Manu Katché "Playground" - JazzBaltica 2008
DYEAR=2008
DGENRE=Jazz
TTITLE0=Manu Katché - November 99.
TTITLE1=Manu Katché - Take Off And Land
TTITLE2=Manu Katché - Good Influence
TTITLE3=Manu Katché - Miles Away
TTITLE4=Manu Katché - No Rush
TTITLE5=Manu Katché - Song For Her
TTITLE6=Manu Katché - Lovely Walk
EXTD=YEAR: 2008
EXTT0=
EXTT1=
EXTT2=
EXTT3=
EXTT4=
EXTT5=
EXTT6=
PLAYORDER=
